# xmcd
#
# Track frame offsets: 
#        150
#        9932
#        28365
#        51534
#        70020
#        87358
#        106612
#        125298
#        140376
#        153747
#        171384
#        183864
#        199702
#        210168
#        221086
#        227220
#        241189
#
# Disc length: 3350 seconds
#
# Revision: 0
# Processed by: cddbd v1.5.2PL0 Copyright (c) Steve Scherf et al.
# Submitted via: ExactAudioCopy v0.99pb4
#
DISCID=e80d1411
DTITLE=Various Artist - Tamra Do
DYEAR=2009
DGENRE=Country
TTITLE0=이어사나 (Ending theme) Jane Park
TTITLE1=Blue Destiny Allison Feder
TTITLE2=Hey-Yeah HowL
TTITLE3=Blue (Love theme) 미카
TTITLE4=반쪽 애프터스쿨, 써니사이드
TTITLE5=그저 말하고 싶어 HowL
TTITLE6=꿈길 김보령
TTITLE7=Loveland U주
TTITLE8=Tamra, the Island
TTITLE9=Your Tears (Main theme)
TTITLE10=Under the Sea
TTITLE11=The New World
TTITLE12=NANBARU
TTITLE13=I am from...
TTITLE14=Run,Run,Run
TTITLE15=William
TTITLE16=Dark Lady
EXTD=
EXTT0=
EXTT1=
EXTT2=
EXTT3=
EXTT4=
EXTT5=
EXTT6=
EXTT7=
EXTT8=
EXTT9=
EXTT10=
EXTT11=
EXTT12=
EXTT13=
EXTT14=
EXTT15=
EXTT16=
PLAYORDER=
